<svg width="126" height="128" viewBox="0 0 126 128" fill="none" xmlns="http://www.w3.org/2000/svg">
<path d="M42.3865 4.47426L41.2386 6.69512L42.3865 4.47426ZM48.2134 10.3854L45.9794 11.5075L48.2134 10.3854ZM10.2801 4.47426L11.4281 6.69512L10.2801 4.47426ZM4.45325 10.3854L6.68729 11.5075L4.45325 10.3854ZM121.547 117.35L123.781 118.472V118.472L121.547 117.35ZM115.72 123.261L116.868 125.482L115.72 123.261ZM121.547 84.779L123.781 83.657L121.547 84.779ZM115.72 78.8679L114.572 81.0888L115.72 78.8679ZM93.104 30.4576L94.8845 28.7026V28.7026L93.104 30.4576ZM95.9325 33.3269L94.1521 35.082L95.9325 33.3269ZM95.9325 63.9331L97.7129 65.6881L95.9325 63.9331ZM42.6638 117.972L40.8834 116.217L42.6638 117.972ZM11.4459 116.217C10.4766 115.234 8.89371 115.222 7.91041 116.192C6.92712 117.161 6.91576 118.744 7.88504 119.727L11.4459 116.217ZM104.842 44.4502L102.461 45.2128L102.461 45.2128L104.842 44.4502ZM104.842 52.8098L102.461 52.0472L102.461 52.0472L104.842 52.8098ZM82.1393 21.4193L82.922 19.0449L82.1393 21.4193ZM62.9342 30.4576L64.7146 32.2127L62.9342 30.4576ZM73.8989 21.4193L73.1163 19.0449L73.8989 21.4193ZM25.0825 97.2961C23.7018 97.2961 22.5825 98.4154 22.5825 99.7961C22.5825 101.177 23.7018 102.296 25.0825 102.296V97.2961ZM27.5825 102.296C28.9632 102.296 30.0825 101.177 30.0825 99.7961C30.0825 98.4154 28.9632 97.2961 27.5825 97.2961V102.296ZM25.0825 99.8322C23.7018 99.8322 22.5825 100.952 22.5825 102.332C22.5825 103.713 23.7018 104.832 25.0825 104.832V99.8322ZM27.5825 104.832C28.9632 104.832 30.0825 103.713 30.0825 102.332C30.0825 100.952 28.9632 99.8322 27.5825 99.8322V104.832ZM24.3333 5.5H28.3333V0.5H24.3333V5.5ZM47.1667 24.6418V101.064H52.1667V24.6418H47.1667ZM5.5 101.064V24.6418H0.5V101.064H5.5ZM26.3333 122.235C14.8611 122.235 5.5 112.791 5.5 101.064H0.5C0.5 115.484 12.0323 127.235 26.3333 127.235V122.235ZM47.1667 101.064C47.1667 112.791 37.8055 122.235 26.3333 122.235V127.235C40.6344 127.235 52.1667 115.484 52.1667 101.064H47.1667ZM28.3333 5.5C32.1089 5.5 34.788 5.502 36.8841 5.67574C38.95 5.84697 40.2268 6.17215 41.2386 6.69512L43.5345 2.2534C41.6941 1.30211 39.678 0.89016 37.2971 0.692826C34.9466 0.497999 32.0252 0.5 28.3333 0.5V5.5ZM52.1667 24.6418C52.1667 20.8948 52.1686 17.9363 51.9769 15.5572C51.7831 13.1499 51.379 11.118 50.4475 9.26331L45.9794 11.5075C46.5011 12.5462 46.8236 13.8548 46.9931 15.9586C47.1648 18.0904 47.1667 20.8135 47.1667 24.6418H52.1667ZM41.2386 6.69512C43.2742 7.74731 44.9358 9.42981 45.9794 11.5075L50.4475 9.26331C48.9344 6.25077 46.5165 3.7948 43.5345 2.2534L41.2386 6.69512ZM24.3333 0.5C20.6415 0.5 17.7201 0.497999 15.3695 0.692826C12.9887 0.89016 10.9726 1.30211 9.13218 2.2534L11.4281 6.69512C12.4398 6.17215 13.7166 5.84697 15.7825 5.67574C17.8787 5.502 20.5578 5.5 24.3333 5.5V0.5ZM5.5 24.6418C5.5 20.8135 5.50189 18.0904 5.67359 15.9586C5.84302 13.8548 6.16558 12.5462 6.68729 11.5075L2.2192 9.26331C1.28767 11.118 0.883606 13.1499 0.689725 15.5572C0.49811 17.9363 0.5 20.8948 0.5 24.6418H5.5ZM9.13218 2.2534C6.15013 3.7948 3.7323 6.25077 2.2192 9.26331L6.68729 11.5075C7.73082 9.42981 9.39247 7.74731 11.4281 6.69512L9.13218 2.2534ZM120.5 99.0355V103.093H125.5V99.0355H120.5ZM101.667 122.235H26.3333V127.235H101.667V122.235ZM120.5 103.093C120.5 106.922 120.498 109.645 120.326 111.777C120.157 113.88 119.834 115.189 119.313 116.228L123.781 118.472C124.712 116.617 125.116 114.585 125.31 112.178C125.502 109.799 125.5 106.84 125.5 103.093H120.5ZM101.667 127.235C105.359 127.235 108.28 127.237 110.63 127.042C113.011 126.845 115.027 126.433 116.868 125.482L114.572 121.04C113.56 121.563 112.283 121.888 110.217 122.059C108.121 122.233 105.442 122.235 101.667 122.235V127.235ZM119.313 116.228C118.269 118.305 116.608 119.988 114.572 121.04L116.868 125.482C119.85 123.94 122.268 121.484 123.781 118.472L119.313 116.228ZM125.5 99.0355C125.5 95.2885 125.502 92.33 125.31 89.9508C125.116 87.5435 124.712 85.5117 123.781 83.657L119.313 85.9011C119.834 86.9398 120.157 88.2485 120.326 90.3522C120.498 92.4841 120.5 95.2071 120.5 99.0355H125.5ZM101.667 79.8937C105.442 79.8937 108.121 79.8957 110.217 80.0694C112.283 80.2406 113.56 80.5658 114.572 81.0888L116.868 76.6471C115.027 75.6958 113.011 75.2838 110.63 75.0865C108.28 74.8917 105.359 74.8937 101.667 74.8937V79.8937ZM123.781 83.657C122.268 80.6444 119.85 78.1885 116.868 76.6471L114.572 81.0888C116.608 82.141 118.269 83.8235 119.313 85.9011L123.781 83.657ZM83 79.8937H101.667V74.8937H83V79.8937ZM91.3236 32.2127L94.1521 35.082L97.7129 31.5719L94.8845 28.7026L91.3236 32.2127ZM94.1521 62.178L40.8834 116.217L44.4442 119.727L97.7129 65.6881L94.1521 62.178ZM40.8834 116.217C32.7502 124.468 19.579 124.468 11.4459 116.217L7.88504 119.727C17.9764 129.964 34.3528 129.964 44.4442 119.727L40.8834 116.217ZM94.1521 35.082C96.821 37.7895 98.716 39.7147 100.079 41.3435C101.423 42.9493 102.106 44.1037 102.461 45.2128L107.223 43.6876C106.589 41.7084 105.457 39.9794 103.914 38.1347C102.389 36.3131 100.324 34.2209 97.7129 31.5719L94.1521 35.082ZM97.7129 65.6881C100.324 63.0391 102.389 60.9468 103.914 59.1253C105.457 57.2806 106.589 55.5517 107.223 53.5724L102.461 52.0472C102.106 53.1563 101.423 54.3107 100.079 55.9164C98.7161 57.5453 96.8211 59.4705 94.1521 62.178L97.7129 65.6881ZM102.461 45.2128C103.172 47.4334 103.172 49.8266 102.461 52.0472L107.223 53.5724C108.252 50.3598 108.252 46.9002 107.223 43.6876L102.461 45.2128ZM94.8845 28.7026C92.2734 26.0538 90.2107 23.9585 88.4147 22.4117C86.5971 20.8464 84.8868 19.6926 82.922 19.0449L81.3567 23.7936C82.4363 24.1495 83.5682 24.8365 85.1518 26.2004C86.757 27.5827 88.6545 29.5049 91.3236 32.2127L94.8845 28.7026ZM64.7146 32.2127C67.3837 29.5049 69.2812 27.5827 70.8864 26.2004C72.47 24.8365 73.602 24.1495 74.6815 23.7936L73.1163 19.0449C71.1514 19.6926 69.4411 20.8464 67.6236 22.4117C65.8275 23.9585 63.7648 26.0538 61.1537 28.7026L64.7146 32.2127ZM82.922 19.0449C79.7358 17.9947 76.3025 17.9947 73.1163 19.0449L74.6815 23.7936C76.8511 23.0785 79.1871 23.0785 81.3567 23.7936L82.922 19.0449ZM51.4476 45.6714L64.7146 32.2127L61.1537 28.7026L47.8868 42.1614L51.4476 45.6714ZM27.1667 101.064C27.1667 101.585 26.7599 101.946 26.3333 101.946V106.946C29.5887 106.946 32.1667 104.279 32.1667 101.064H27.1667ZM26.3333 101.946C25.9068 101.946 25.5 101.585 25.5 101.064H20.5C20.5 104.279 23.078 106.946 26.3333 106.946V101.946ZM25.5 101.064C25.5 100.544 25.9068 100.183 26.3333 100.183V95.1828C23.078 95.1828 20.5 97.85 20.5 101.064H25.5ZM26.3333 100.183C26.7599 100.183 27.1667 100.544 27.1667 101.064H32.1667C32.1667 97.85 29.5887 95.1828 26.3333 95.1828V100.183ZM25.0825 102.296H27.5825V97.2961H25.0825V102.296ZM25.0825 104.832H27.5825V99.8322H25.0825V104.832Z" fill="white"/>
</svg>
