<svg width="127" height="127" viewBox="0 0 127 127" fill="none" xmlns="http://www.w3.org/2000/svg">
<path d="M63.4999 25.2916V101.708M101.708 63.4999L25.2916 63.4999M47.1249 123.542H79.8749C95.1597 123.542 102.802 123.542 108.64 120.567C113.775 117.95 117.95 113.775 120.567 108.64C123.542 102.802 123.542 95.1597 123.542 79.8749V47.1249C123.542 31.8401 123.542 24.1978 120.567 18.3598C117.95 13.2245 113.775 9.04941 108.64 6.43287C102.802 3.45825 95.1597 3.45825 79.8749 3.45825H47.1249C31.8401 3.45825 24.1978 3.45825 18.3598 6.43287C13.2245 9.04941 9.04941 13.2245 6.43287 18.3598C3.45825 24.1978 3.45825 31.8401 3.45825 47.1249V79.8749C3.45825 95.1597 3.45825 102.802 6.43287 108.64C9.04941 113.775 13.2245 117.95 18.3598 120.567C24.1978 123.542 31.8401 123.542 47.1249 123.542ZM42.7582 101.708H84.2416C90.3555 101.708 93.4124 101.708 95.7476 100.518C97.8018 99.4718 99.4718 97.8018 100.518 95.7476C101.708 93.4124 101.708 90.3555 101.708 84.2416V42.7582C101.708 36.6443 101.708 33.5874 100.518 31.2522C99.4718 29.1981 97.8018 27.528 95.7476 26.4814C93.4124 25.2916 90.3555 25.2916 84.2416 25.2916H42.7582C36.6443 25.2916 33.5874 25.2916 31.2522 26.4814C29.1981 27.528 27.528 29.1981 26.4814 31.2522C25.2916 33.5874 25.2916 36.6443 25.2916 42.7582V84.2416C25.2916 90.3555 25.2916 93.4124 26.4814 95.7476C27.528 97.8018 29.1981 99.4718 31.2522 100.518C33.5874 101.708 36.6443 101.708 42.7582 101.708Z" stroke="white" stroke-width="5" stroke-linecap="round"/>
</svg>
